<?xml version="1.0" standalone="no"?>
<!DOCTYPE svg PUBLIC "-//W3C//DTD SVG 20010904//EN"
 "http://www.w3.org/TR/2001/REC-SVG-20010904/DTD/svg10.dtd">
<svg version="1.0" xmlns="http://www.w3.org/2000/svg"
 width="144.000000pt" height="144.000000pt" viewBox="0 0 144.000000 144.000000"
 preserveAspectRatio="xMidYMid meet">
<metadata>
Created by potrace 1.14, written by Peter Selinger 2001-2017
</metadata>
<g transform="translate(0.000000,144.000000) scale(0.100000,-0.100000)"
fill="#000000" stroke="none">
<path d="M210 1395 c0 -33 4 -45 15 -45 8 0 15 -7 15 -15 0 -8 7 -15 15 -15 8
0 15 -7 15 -15 0 -8 7 -15 15 -15 8 0 15 -7 15 -15 0 -8 7 -15 15 -15 11 0 15
-12 15 -45 0 -33 -4 -45 -15 -45 -11 0 -15 -12 -15 -45 0 -43 -1 -45 -30 -45
-20 0 -30 -5 -30 -15 0 -8 -7 -15 -15 -15 -8 0 -15 -7 -15 -15 0 -8 -7 -15
-15 -15 -10 0 -15 -10 -15 -30 0 -20 -5 -30 -15 -30 -12 0 -15 -15 -15 -75 0
-60 3 -75 15 -75 8 0 15 -7 15 -15 0 -8 7 -15 15 -15 8 0 15 -7 15 -15 0 -11
12 -15 45 -15 33 0 45 -4 45 -15 0 -8 7 -15 15 -15 10 0 15 -10 15 -30 0 -20
-5 -30 -15 -30 -8 0 -15 -7 -15 -15 0 -8 -7 -15 -15 -15 -8 0 -15 -7 -15 -15
0 -8 -7 -15 -15 -15 -8 0 -15 -7 -15 -15 0 -10 -10 -15 -30 -15 -20 0 -30 -5
-30 -15 0 -8 -7 -15 -15 -15 -12 0 -15 -15 -15 -75 0 -60 3 -75 15 -75 11 0
15 -12 15 -45 0 -33 4 -45 15 -45 8 0 15 -7 15 -15 0 -12 13 -15 60 -15 l60 0
0 -45 c0 -33 -4 -45 -15 -45 -10 0 -15 -10 -15 -30 0 -20 -5 -30 -15 -30 -8 0
-15 -7 -15 -15 0 -10 -10 -15 -30 -15 -20 0 -30 -5 -30 -15 0 -8 -7 -15 -15
-15 -10 0 -15 -10 -15 -30 l0 -30 135 0 135 0 0 30 c0 20 -5 30 -15 30 -11 0
-15 12 -15 45 0 33 4 45 15 45 11 0 15 12 15 45 0 33 4 45 15 45 11 0 15 12
15 45 0 33 4 45 15 45 8 0 15 -7 15 -15 0 -10 10 -15 30 -15 20 0 30 -5 30
-15 0 -8 7 -15 15 -15 8 0 15 -7 15 -15 0 -12 20 -15 120 -15 100 0 120 3 120
15 0 8 7 15 15 15 8 0 15 7 15 15 0 10 10 15 30 15 20 0 30 5 30 15 0 8 7 15
15 15 11 0 15 -12 15 -45 0 -33 4 -45 15 -45 11 0 15 -12 15 -45 0 -33 4 -45
15 -45 11 0 15 -12 15 -45 0 -33 -4 -45 -15 -45 -10 0 -15 -10 -15 -30 l0 -30
135 0 135 0 0 30 c0 20 -5 30 -15 30 -8 0 -15 7 -15 15 0 10 -10 15 -30 15
-20 0 -30 5 -30 15 0 8 -7 15 -15 15 -10 0 -15 10 -15 30 0 20 -5 30 -15 30
-11 0 -15 12 -15 45 l0 45 60 0 c47 0 60 3 60 15 0 8 7 15 15 15 11 0 15 12
15 45 0 33 4 45 15 45 12 0 15 15 15 75 0 60 -3 75 -15 75 -8 0 -15 7 -15 15
0 10 -10 15 -30 15 -20 0 -30 5 -30 15 0 8 -7 15 -15 15 -8 0 -15 7 -15 15 0
8 -7 15 -15 15 -8 0 -15 7 -15 15 0 8 -7 15 -15 15 -10 0 -15 10 -15 30 0 20
5 30 15 30 8 0 15 7 15 15 0 11 12 15 45 15 33 0 45 4 45 15 0 8 7 15 15 15 8
0 15 7 15 15 0 8 7 15 15 15 12 0 15 15 15 75 0 60 -3 75 -15 75 -10 0 -15 10
-15 30 0 20 -5 30 -15 30 -8 0 -15 7 -15 15 0 8 -7 15 -15 15 -8 0 -15 7 -15
15 0 10 -10 15 -30 15 -29 0 -30 2 -30 45 0 33 -4 45 -15 45 -11 0 -15 12 -15
45 0 33 4 45 15 45 8 0 15 7 15 15 0 8 7 15 15 15 8 0 15 7 15 15 0 8 7 15 15
15 8 0 15 7 15 15 0 8 7 15 15 15 11 0 15 12 15 45 l0 45 -45 0 c-33 0 -45 -4
-45 -15 0 -8 -7 -15 -15 -15 -8 0 -15 -7 -15 -15 0 -8 -7 -15 -15 -15 -8 0
-15 -7 -15 -15 0 -8 -7 -15 -15 -15 -8 0 -15 -7 -15 -15 0 -10 -10 -15 -30
-15 -20 0 -30 5 -30 15 0 10 -10 15 -30 15 -20 0 -30 5 -30 15 0 12 -13 15
-60 15 -47 0 -60 -3 -60 -15 0 -12 -17 -15 -90 -15 -73 0 -90 3 -90 15 0 12
-13 15 -60 15 -47 0 -60 -3 -60 -15 0 -10 -10 -15 -30 -15 -20 0 -30 -5 -30
-15 0 -10 -10 -15 -30 -15 -20 0 -30 5 -30 15 0 8 -7 15 -15 15 -8 0 -15 7
-15 15 0 8 -7 15 -15 15 -8 0 -15 7 -15 15 0 8 -7 15 -15 15 -8 0 -15 7 -15
15 0 11 -12 15 -45 15 l-45 0 0 -45z m90 0 c0 -8 7 -15 15 -15 8 0 15 -7 15
-15 0 -8 7 -15 15 -15 8 0 15 -7 15 -15 0 -8 7 -15 15 -15 10 0 15 -10 15 -30
0 -20 5 -30 15 -30 8 0 15 7 15 15 0 8 7 15 15 15 8 0 15 7 15 15 0 10 10 15
30 15 20 0 30 5 30 15 0 12 13 15 60 15 47 0 60 -3 60 -15 0 -12 17 -15 90
-15 73 0 90 3 90 15 0 12 13 15 60 15 47 0 60 -3 60 -15 0 -10 10 -15 30 -15
20 0 30 -5 30 -15 0 -8 7 -15 15 -15 8 0 15 -7 15 -15 0 -8 7 -15 15 -15 10 0
15 10 15 30 0 20 5 30 15 30 8 0 15 7 15 15 0 8 7 15 15 15 8 0 15 7 15 15 0
8 7 15 15 15 8 0 15 7 15 15 0 10 10 15 30 15 20 0 30 -5 30 -15 0 -8 -7 -15
-15 -15 -8 0 -15 -7 -15 -15 0 -8 -7 -15 -15 -15 -8 0 -15 -7 -15 -15 0 -8 -7
-15 -15 -15 -8 0 -15 -7 -15 -15 0 -8 -7 -15 -15 -15 -8 0 -15 -7 -15 -15 0
-8 -7 -15 -15 -15 -8 0 -15 -7 -15 -15 0 -8 7 -15 15 -15 11 0 15 -12 15 -45
0 -33 -4 -45 -15 -45 -12 0 -15 -20 -15 -120 0 -100 -2 -120 -15 -120 -10 0
-15 -10 -15 -30 0 -20 -5 -30 -15 -30 -12 0 -15 -13 -15 -60 0 -47 -3 -60 -15
-60 -8 0 -15 7 -15 15 0 8 -7 15 -15 15 -11 0 -15 12 -15 45 0 33 4 45 15 45
10 0 15 10 15 30 0 27 3 30 30 30 l30 0 0 90 c0 73 -3 90 -15 90 -10 0 -15 10
-15 30 0 20 -5 30 -15 30 -8 0 -15 7 -15 15 0 8 -7 15 -15 15 -8 0 -15 7 -15
15 0 8 -7 15 -15 15 -8 0 -15 7 -15 15 0 10 10 15 30 15 20 0 30 -5 30 -15 0
-10 10 -15 30 -15 27 0 30 3 30 30 0 20 -5 30 -15 30 -8 0 -15 7 -15 15 0 11
-12 15 -45 15 -43 0 -45 -1 -45 -30 0 -27 -3 -30 -30 -30 -20 0 -30 5 -30 15
0 13 -20 15 -120 15 -100 0 -120 -2 -120 -15 0 -10 -10 -15 -30 -15 -27 0 -30
3 -30 30 0 29 -2 30 -45 30 -33 0 -45 -4 -45 -15 0 -8 -7 -15 -15 -15 -10 0
-15 -10 -15 -30 0 -27 3 -30 30 -30 20 0 30 5 30 15 0 10 10 15 30 15 20 0 30
-5 30 -15 0 -8 -7 -15 -15 -15 -8 0 -15 -7 -15 -15 0 -8 -7 -15 -15 -15 -8 0
-15 -7 -15 -15 0 -8 -7 -15 -15 -15 -10 0 -15 -10 -15 -30 0 -20 -5 -30 -15
-30 -12 0 -15 -17 -15 -90 l0 -90 30 0 c27 0 30 -3 30 -30 0 -20 5 -30 15 -30
11 0 15 -12 15 -45 0 -33 -4 -45 -15 -45 -8 0 -15 -7 -15 -15 0 -8 -7 -15 -15
-15 -12 0 -15 13 -15 60 0 47 -3 60 -15 60 -10 0 -15 10 -15 30 0 20 -5 30
-15 30 -12 0 -15 20 -15 120 0 100 -2 120 -15 120 -11 0 -15 12 -15 45 0 33 4
45 15 45 8 0 15 7 15 15 0 8 -7 15 -15 15 -8 0 -15 7 -15 15 0 8 -7 15 -15 15
-8 0 -15 7 -15 15 0 8 -7 15 -15 15 -8 0 -15 7 -15 15 0 8 -7 15 -15 15 -8 0
-15 7 -15 15 0 8 -7 15 -15 15 -8 0 -15 7 -15 15 0 10 10 15 30 15 20 0 30 -5
30 -15z m540 -180 c0 -10 10 -15 30 -15 20 0 30 -5 30 -15 0 -8 7 -15 15 -15
8 0 15 -7 15 -15 0 -8 7 -15 15 -15 8 0 15 -7 15 -15 0 -8 -7 -15 -15 -15 -10
0 -15 -10 -15 -30 0 -20 5 -30 15 -30 11 0 15 -12 15 -45 l0 -45 -45 0 -45 0
0 -120 c0 -100 -2 -120 -15 -120 -8 0 -15 -7 -15 -15 0 -8 -7 -15 -15 -15 -8
0 -15 -7 -15 -15 0 -12 -17 -15 -90 -15 -73 0 -90 3 -90 15 0 8 -7 15 -15 15
-8 0 -15 7 -15 15 0 8 -7 15 -15 15 -12 0 -15 20 -15 120 l0 120 -45 0 -45 0
0 45 c0 33 4 45 15 45 10 0 15 10 15 30 0 20 -5 30 -15 30 -8 0 -15 7 -15 15
0 8 7 15 15 15 8 0 15 7 15 15 0 8 7 15 15 15 8 0 15 7 15 15 0 10 10 15 30
15 20 0 30 5 30 15 0 13 20 15 120 15 100 0 120 -2 120 -15z m-510 -195 c0
-27 -3 -30 -30 -30 -20 0 -30 -5 -30 -15 0 -11 12 -15 45 -15 33 0 45 -4 45
-15 0 -8 -7 -15 -15 -15 -8 0 -15 -7 -15 -15 0 -8 -7 -15 -15 -15 -12 0 -15
-13 -15 -60 0 -47 -3 -60 -15 -60 -10 0 -15 10 -15 30 0 20 -5 30 -15 30 -12
0 -15 18 -15 105 l0 105 45 0 c43 0 45 -1 45 -30z m870 -75 c0 -87 -3 -105
-15 -105 -10 0 -15 -10 -15 -30 0 -20 -5 -30 -15 -30 -12 0 -15 13 -15 60 0
47 -3 60 -15 60 -8 0 -15 7 -15 15 0 8 -7 15 -15 15 -8 0 -15 7 -15 15 0 11
12 15 45 15 33 0 45 4 45 15 0 10 -10 15 -30 15 -27 0 -30 3 -30 30 0 29 2 30
45 30 l45 0 0 -105z m-990 -15 c0 -20 -5 -30 -15 -30 -10 0 -15 10 -15 30 0
20 5 30 15 30 10 0 15 -10 15 -30z m1050 0 c0 -20 -5 -30 -15 -30 -10 0 -15
10 -15 30 0 20 5 30 15 30 10 0 15 -10 15 -30z m-870 -165 c0 -8 7 -15 15 -15
12 0 15 -13 15 -60 0 -47 -3 -60 -15 -60 -8 0 -15 -7 -15 -15 0 -8 -7 -15 -15
-15 -12 0 -15 13 -15 60 0 47 -3 60 -15 60 -10 0 -15 10 -15 30 0 27 3 30 30
30 20 0 30 -5 30 -15z m720 -15 c0 -20 -5 -30 -15 -30 -12 0 -15 -13 -15 -60
0 -47 -3 -60 -15 -60 -8 0 -15 7 -15 15 0 8 -7 15 -15 15 -12 0 -15 13 -15 60
0 47 3 60 15 60 8 0 15 7 15 15 0 10 10 15 30 15 27 0 30 -3 30 -30z m-600
-75 c0 -8 7 -15 15 -15 8 0 15 -7 15 -15 0 -10 10 -15 30 -15 l30 0 0 -90 c0
-73 -3 -90 -15 -90 -8 0 -15 -7 -15 -15 0 -8 -7 -15 -15 -15 -8 0 -15 -7 -15
-15 0 -10 -10 -15 -30 -15 -27 0 -30 3 -30 30 0 29 2 30 45 30 l45 0 0 75 c0
60 -3 75 -15 75 -8 0 -15 7 -15 15 0 8 -7 15 -15 15 -8 0 -15 7 -15 15 0 8 -7
15 -15 15 -8 0 -15 7 -15 15 0 8 7 15 15 15 8 0 15 -7 15 -15z m450 0 c0 -8
-7 -15 -15 -15 -8 0 -15 -7 -15 -15 0 -8 -7 -15 -15 -15 -8 0 -15 -7 -15 -15
0 -8 -7 -15 -15 -15 -12 0 -15 -15 -15 -75 l0 -75 45 0 c43 0 45 -1 45 -30 0
-27 -3 -30 -30 -30 -20 0 -30 5 -30 15 0 8 -7 15 -15 15 -8 0 -15 7 -15 15 0
8 -7 15 -15 15 -12 0 -15 17 -15 90 l0 90 30 0 c20 0 30 5 30 15 0 8 7 15 15
15 8 0 15 7 15 15 0 8 7 15 15 15 8 0 15 -7 15 -15z m-630 -90 c0 -8 7 -15 15
-15 10 0 15 -10 15 -30 0 -20 -5 -30 -15 -30 -10 0 -15 10 -15 30 0 20 -5 30
-15 30 -8 0 -15 7 -15 15 0 8 7 15 15 15 8 0 15 -7 15 -15z m120 0 c0 -8 7
-15 15 -15 8 0 15 -7 15 -15 0 -8 7 -15 15 -15 10 0 15 -10 15 -30 0 -27 -3
-30 -30 -30 -27 0 -30 3 -30 30 0 20 -5 30 -15 30 -10 0 -15 10 -15 30 0 20 5
30 15 30 8 0 15 -7 15 -15z m570 -15 c0 -20 -5 -30 -15 -30 -10 0 -15 -10 -15
-30 0 -27 -3 -30 -30 -30 -27 0 -30 3 -30 30 0 20 5 30 15 30 8 0 15 7 15 15
0 8 7 15 15 15 8 0 15 7 15 15 0 8 7 15 15 15 10 0 15 -10 15 -30z m120 15 c0
-8 -7 -15 -15 -15 -10 0 -15 -10 -15 -30 0 -20 -5 -30 -15 -30 -10 0 -15 10
-15 30 0 20 5 30 15 30 8 0 15 7 15 15 0 8 7 15 15 15 8 0 15 -7 15 -15z
m-840 -90 c0 -33 4 -45 15 -45 12 0 15 -15 15 -75 0 -60 -3 -75 -15 -75 -12 0
-15 15 -15 75 0 60 -3 75 -15 75 -8 0 -15 7 -15 15 0 10 -10 15 -30 15 -27 0
-30 -3 -30 -30 0 -20 -5 -30 -15 -30 -12 0 -15 13 -15 60 l0 60 60 0 60 0 0
-45z m960 -15 c0 -47 -3 -60 -15 -60 -10 0 -15 10 -15 30 0 27 -3 30 -30 30
-20 0 -30 -5 -30 -15 0 -8 -7 -15 -15 -15 -12 0 -15 -15 -15 -75 0 -60 -3 -75
-15 -75 -12 0 -15 15 -15 75 0 60 3 75 15 75 11 0 15 12 15 45 l0 45 60 0 60
0 0 -60z m-840 -270 c0 -27 -3 -30 -30 -30 -27 0 -30 -3 -30 -30 0 -20 -5 -30
-15 -30 -10 0 -15 10 -15 30 0 20 5 30 15 30 10 0 15 10 15 30 0 27 3 30 30
30 27 0 30 -3 30 -30z m660 0 c0 -20 5 -30 15 -30 10 0 15 -10 15 -30 0 -20
-5 -30 -15 -30 -10 0 -15 10 -15 30 0 27 -3 30 -30 30 -27 0 -30 3 -30 30 0
27 3 30 30 30 27 0 30 -3 30 -30z m-780 -135 c0 -8 -7 -15 -15 -15 -8 0 -15
-7 -15 -15 0 -10 -10 -15 -30 -15 -20 0 -30 5 -30 15 0 10 10 15 30 15 20 0
30 5 30 15 0 8 7 15 15 15 8 0 15 -7 15 -15z m90 -15 c0 -27 -3 -30 -30 -30
-27 0 -30 3 -30 30 0 27 3 30 30 30 27 0 30 -3 30 -30z m720 0 c0 -27 -3 -30
-30 -30 -27 0 -30 3 -30 30 0 27 3 30 30 30 27 0 30 -3 30 -30z m60 15 c0 -10
10 -15 30 -15 20 0 30 -5 30 -15 0 -10 -10 -15 -30 -15 -20 0 -30 5 -30 15 0
8 -7 15 -15 15 -8 0 -15 7 -15 15 0 8 7 15 15 15 8 0 15 -7 15 -15z"/>
<path d="M570 1305 c0 -10 10 -15 30 -15 20 0 30 5 30 15 0 10 -10 15 -30 15
-20 0 -30 -5 -30 -15z"/>
<path d="M810 1305 c0 -10 10 -15 30 -15 20 0 30 5 30 15 0 10 -10 15 -30 15
-20 0 -30 -5 -30 -15z"/>
<path d="M540 1155 c0 -8 -7 -15 -15 -15 -8 0 -15 -7 -15 -15 0 -8 7 -15 15
-15 8 0 15 7 15 15 0 8 7 15 15 15 8 0 15 7 15 15 0 8 -7 15 -15 15 -8 0 -15
-7 -15 -15z"/>
<path d="M870 1155 c0 -8 7 -15 15 -15 8 0 15 -7 15 -15 0 -8 7 -15 15 -15 8
0 15 7 15 15 0 8 -7 15 -15 15 -8 0 -15 7 -15 15 0 8 -7 15 -15 15 -8 0 -15
-7 -15 -15z"/>
<path d="M600 765 c0 -33 4 -45 15 -45 8 0 15 -7 15 -15 0 -12 17 -15 90 -15
73 0 90 3 90 15 0 8 7 15 15 15 11 0 15 12 15 45 0 33 -4 45 -15 45 -8 0 -15
-7 -15 -15 0 -8 -7 -15 -15 -15 -8 0 -15 -7 -15 -15 0 -12 -13 -15 -60 -15
-47 0 -60 3 -60 15 0 8 -7 15 -15 15 -8 0 -15 7 -15 15 0 8 -7 15 -15 15 -11
0 -15 -12 -15 -45z"/>
</g>
</svg>
