<svg version="1.1" xmlns="http://www.w3.org/2000/svg" viewBox="0 0 933.944444682863 469.5833339691162" width="1867.888889365726" height="939.1666679382324">
  <!-- svg-source:excalidraw -->
  
  <defs>
    <style class="style-fonts">
      @font-face {
        font-family: "Virgil";
        src: url("https://excalidraw.com/Virgil.woff2");
      }
      @font-face {
        font-family: "Cascadia";
        src: url("https://excalidraw.com/Cascadia.woff2");
      }
    </style>
    
  </defs>
  <g stroke-linecap="round" transform="translate(756.944444682863 10) rotate(0 83.5 41.5)"><path d="M20.75 0 M20.75 0 C57.49 -0.75, 95.32 -1.16, 146.25 0 M146.25 0 C159.02 -0.22, 168.33 6.15, 167 20.75 M167 20.75 C166.27 35.9, 166.67 47.63, 167 62.25 M167 62.25 C165.17 74.87, 161.18 82.2, 146.25 83 M146.25 83 C118.58 84.04, 89.61 81.85, 20.75 83 M20.75 83 C8.5 83.58, -1.1 76.66, 0 62.25 M0 62.25 C-2.11 53.12, -1.16 45.82, 0 20.75 M0 20.75 C-1.43 5.92, 8.74 0.15, 20.75 0" stroke="#1e1e1e" stroke-width="1.5" fill="none" stroke-dasharray="8 9"></path></g><g transform="translate(771.9044361379412 39) rotate(0 68.54000854492188 12.5)"><text x="68.54000854492188" y="0" font-family="Virgil, Segoe UI Emoji" font-size="20px" fill="#1e1e1e" text-anchor="middle" style="white-space: pre;" direction="ltr" dominant-baseline="text-before-edge">4337 Account</text></g><g stroke-linecap="round" transform="translate(324.69444468286304 10) rotate(0 83.5 41.5)"><path d="M20.75 0 M20.75 0 C67.86 -1.75, 110.82 -2.88, 146.25 0 M146.25 0 C161.52 1.97, 166.49 7.89, 167 20.75 M167 20.75 C165.92 31.07, 165.58 42.68, 167 62.25 M167 62.25 C166.92 74.17, 161.05 84.26, 146.25 83 M146.25 83 C115.36 81.36, 82.42 82.72, 20.75 83 M20.75 83 C6.65 81.91, -1.91 75.08, 0 62.25 M0 62.25 C0.68 52.57, 2.02 38.91, 0 20.75 M0 20.75 C1.14 8.78, 7.1 -0.79, 20.75 0" stroke="#1e1e1e" stroke-width="1.5" fill="none" stroke-dasharray="8 9"></path></g><g transform="translate(385.10444453027515 39) rotate(0 23.09000015258789 12.5)"><text x="23.09000015258789" y="0" font-family="Virgil, Segoe UI Emoji" font-size="20px" fill="#343a40" text-anchor="middle" style="white-space: pre;" direction="ltr" dominant-baseline="text-before-edge">Mech</text></g><g stroke-linecap="round" transform="translate(109.94444468286304 208.5) rotate(0 83.5 41.5)"><path d="M20.75 0 M20.75 0 C67.8 0.07, 110.54 -0.51, 146.25 0 M146.25 0 C159.06 -0.81, 165.12 7.78, 167 20.75 M167 20.75 C165.54 34.04, 167.11 48.84, 167 62.25 M167 62.25 C168.87 75.01, 158.55 84.31, 146.25 83 M146.25 83 C99.89 83.06, 52.48 82.18, 20.75 83 M20.75 83 C6.22 82.64, 1.82 75.51, 0 62.25 M0 62.25 C-0.23 49.74, -1.46 38.86, 0 20.75 M0 20.75 C0.36 6.83, 6.66 0.79, 20.75 0" stroke="#1e1e1e" stroke-width="1.5" fill="none" stroke-dasharray="8 9"></path></g><g transform="translate(146.4644451406267 237.5) rotate(0 46.97999954223633 12.5)"><text x="46.97999954223633" y="0" font-family="Virgil, Segoe UI Emoji" font-size="20px" fill="#1e1e1e" text-anchor="middle" style="white-space: pre;" direction="ltr" dominant-baseline="text-before-edge">Threshold</text></g><g stroke-linecap="round" transform="translate(539.944444682863 208.5) rotate(0 83.5 41.5)"><path d="M20.75 0 M20.75 0 C60.91 1.06, 97.6 1.35, 146.25 0 M146.25 0 C159.82 -0.58, 168.71 8.64, 167 20.75 M167 20.75 C168.69 31.23, 165.93 40.96, 167 62.25 M167 62.25 C168.81 74.21, 159.11 82.62, 146.25 83 M146.25 83 C96.95 80.61, 49.44 80.48, 20.75 83 M20.75 83 C6.97 84.47, 0.26 75.29, 0 62.25 M0 62.25 C-1.42 50.37, -1.91 33.73, 0 20.75 M0 20.75 C-0.42 7.26, 5.75 -0.49, 20.75 0" stroke="#1e1e1e" stroke-width="1.5" fill="none" stroke-dasharray="8 9"></path></g><g transform="translate(568.1944484975603 237.5) rotate(0 55.249996185302734 12.5)"><text x="55.249996185302734" y="0" font-family="Virgil, Segoe UI Emoji" font-size="20px" fill="#1e1e1e" text-anchor="middle" style="white-space: pre;" direction="ltr" dominant-baseline="text-before-edge">Tokenbound</text></g><g stroke-linecap="round" transform="translate(756.944444682863 208.5) rotate(0 83.5 41.5)"><path d="M20.75 0 M20.75 0 C47.42 0.08, 72.06 -0.3, 146.25 0 M146.25 0 C158.28 1.63, 166 7.67, 167 20.75 M167 20.75 C167.71 38.4, 168.28 53.15, 167 62.25 M167 62.25 C165.72 76.92, 160.92 82.57, 146.25 83 M146.25 83 C98.34 84.17, 47.78 83.69, 20.75 83 M20.75 83 C8.66 84.88, -1.32 76.52, 0 62.25 M0 62.25 C0.06 53.57, 1.77 42.74, 0 20.75 M0 20.75 C0.27 6.27, 6.39 -1.62, 20.75 0" stroke="#1e1e1e" stroke-width="1.5" fill="none" stroke-dasharray="8 9"></path></g><g transform="translate(775.8344364431169 237.5) rotate(0 64.6100082397461 12.5)"><text x="64.6100082397461" y="0" font-family="Virgil, Segoe UI Emoji" font-size="20px" fill="#1e1e1e" text-anchor="middle" style="white-space: pre;" direction="ltr" dominant-baseline="text-before-edge">6551 Account</text></g><g stroke-linecap="round" transform="translate(324.69444468286304 208.5) rotate(0 83.5 41.5)"><path d="M20.75 0 M20.75 0 C61.43 2.2, 101.2 1.76, 146.25 0 M20.75 0 C58.2 0.34, 94.48 -0.33, 146.25 0 M146.25 0 C158.35 -1.09, 167.82 8.14, 167 20.75 M146.25 0 C157.87 0.81, 166.21 8.85, 167 20.75 M167 20.75 C166.2 35, 165.07 46.77, 167 62.25 M167 20.75 C167.63 32.24, 166.56 42.7, 167 62.25 M167 62.25 C167.98 76.71, 161.59 84.78, 146.25 83 M167 62.25 C165.47 77.16, 160.83 80.85, 146.25 83 M146.25 83 C97.65 85.2, 49.65 82.88, 20.75 83 M146.25 83 C119.83 83.54, 95.61 83.49, 20.75 83 M20.75 83 C5.2 84.09, -0.08 75.68, 0 62.25 M20.75 83 C8.01 81.12, -1.1 76.6, 0 62.25 M0 62.25 C-1.44 44.73, -1.03 31.9, 0 20.75 M0 62.25 C-0.51 49.38, -0.54 34.87, 0 20.75 M0 20.75 C1.62 8.57, 7.55 1.02, 20.75 0 M0 20.75 C-0.65 8.52, 6.75 0.33, 20.75 0" stroke="#1e1e1e" stroke-width="1" fill="none"></path></g><g transform="translate(375.11444285180835 237.5) rotate(0 33.08000183105469 12.5)"><text x="33.08000183105469" y="0" font-family="Virgil, Segoe UI Emoji" font-size="20px" fill="#1e1e1e" text-anchor="middle" style="white-space: pre;" direction="ltr" dominant-baseline="text-before-edge">Zodiac</text></g><g stroke-linecap="round"><g transform="translate(408.1078406679377 209.5) rotate(0 0.0866040149253422 -57.29772856906055)"><path d="M-0.9 1.06 C-0.58 -18.15, 1.1 -96.42, 1.07 -115.66 M0.83 0.58 C1.16 -18.41, 0.62 -94.76, 0.69 -114.2" stroke="#1e1e1e" stroke-width="1" fill="none"></path></g><g transform="translate(408.1078406679377 209.5) rotate(0 0.0866040149253422 -57.29772856906055)"><path d="M2.47 -114.87 L5.67 -102.33 L-7.16 -102.09 L1 -112.59" stroke="none" stroke-width="0" fill="#1e1e1e" fill-rule="evenodd"></path><path d="M2.02 -112.86 C1.92 -112.38, 5.03 -109.33, 7.09 -100.57 M0.65 -114.65 C2.61 -109.92, 4.55 -106.91, 7.18 -101.26 M7.13 -100.94 C2.23 -100.76, -3.07 -100.37, -6.13 -101.83 M7.51 -100.48 C3.56 -100.2, 1.45 -101.13, -5.42 -101.05 M-5.71 -101.47 C-2.61 -104.94, -2.01 -107.38, -0.57 -114.85 M-6.24 -99.93 C-4.1 -103.67, -2.83 -107.58, 0.73 -114.75 M0.69 -114.2 C0.69 -114.2, 0.69 -114.2, 0.69 -114.2 M0.69 -114.2 C0.69 -114.2, 0.69 -114.2, 0.69 -114.2" stroke="#1e1e1e" stroke-width="1" fill="none"></path></g></g><mask></mask><g stroke-linecap="round"><g transform="translate(624.3578406679377 207.5) rotate(0 -107.45494483412585 -56.70837835688144)"><path d="M0.27 -1.44 C0.29 -13.19, -0.69 -25.32, 1.15 -45.45 M0.04 -0.86 C0.32 -12.52, 0.89 -25.52, -0.55 -46.37 M1.1 -45.84 C-74.1 -49.6, -144.96 -51.53, -214.26 -49.34 M-0.59 -46.87 C-49.63 -47.73, -98.71 -48.78, -215.37 -50.5 M-215.9 -49.44 C-216.46 -71.24, -215.38 -91.03, -215.58 -112.56 M-215.28 -49.71 C-215.82 -69.88, -215.28 -90.53, -215.8 -111.92" stroke="#1e1e1e" stroke-width="1" fill="none"></path></g><g transform="translate(624.3578406679377 207.5) rotate(0 -107.45494483412585 -56.70837835688144)"><path d="M-214.08 -111.88 L-210.12 -97.33 L-222.37 -99.18 L-214.12 -113.51" stroke="none" stroke-width="0" fill="#1e1e1e" fill-rule="evenodd"></path><path d="M-215.6 -113.01 C-214.09 -108.51, -213.06 -104.35, -208.43 -97.25 M-215.77 -112.57 C-214.11 -107.84, -211.88 -104.16, -209.71 -97.94 M-208.49 -97.57 C-214.5 -98.29, -217.38 -98.9, -221.49 -97.77 M-209.71 -98.31 C-212.18 -98.66, -214.68 -98.88, -222.3 -98.62 M-222.71 -97.83 C-221.09 -103.19, -218.17 -107.06, -216.3 -113.09 M-222.24 -98.03 C-220.35 -102.28, -217.87 -106.95, -216.46 -112.62 M-215.8 -111.92 C-215.8 -111.92, -215.8 -111.92, -215.8 -111.92 M-215.8 -111.92 C-215.8 -111.92, -215.8 -111.92, -215.8 -111.92" stroke="#1e1e1e" stroke-width="1" fill="none"></path></g></g><mask></mask><g stroke-linecap="round"><g transform="translate(192.90203711660956 207.48224264141163) rotate(0 107.36453387696486 -56.053168675303425)"><path d="M0.81 -1.3 C-1.9 -11.31, -0.19 -18.81, -0.9 -49.43 M0.71 -0.93 C-0.24 -14.91, -0.01 -30.69, -0.07 -47.05 M1.09 -49.11 C50.88 -49.25, 102.94 -50.28, 214.84 -49.33 M0.48 -47.95 C61.42 -49.93, 121.4 -49.35, 215.26 -50.05 M213.76 -51.42 C216.08 -70.94, 216.51 -90.43, 213.47 -110.91 M214.25 -49.76 C214.38 -72.3, 215.59 -96.35, 214.58 -111.18" stroke="#1e1e1e" stroke-width="1" fill="none"></path></g><g transform="translate(192.90203711660956 207.48224264141163) rotate(0 107.36453387696486 -56.053168675303425)"><path d="M213.92 -109.27 L220.84 -98.14 L207.15 -95.51 L213.23 -110.65" stroke="none" stroke-width="0" fill="#1e1e1e" fill-rule="evenodd"></path><path d="M215.19 -112.16 C214.48 -109.65, 217.13 -105.24, 220.59 -99.17 M215.12 -111.87 C216.48 -106.31, 218.83 -102.15, 221.22 -97.38 M222.06 -98.89 C217.94 -97.31, 215.46 -97.46, 208.54 -96.55 M221.61 -98.04 C218.3 -98.13, 214.28 -97, 208.84 -97.07 M207.73 -98.08 C211.63 -101.95, 213.97 -105.79, 213.5 -110.7 M208.09 -96.84 C210.52 -101.8, 213.65 -107.93, 214.34 -110.9 M214.58 -111.18 C214.58 -111.18, 214.58 -111.18, 214.58 -111.18 M214.58 -111.18 C214.58 -111.18, 214.58 -111.18, 214.58 -111.18" stroke="#1e1e1e" stroke-width="1" fill="none"></path></g></g><mask></mask><g stroke-linecap="round"><g transform="translate(493.44444468286304 51.74050297512349) rotate(0 131.3013964042953 -0.2405029751234622)"><path d="M-0.87 1.15 C42.71 1.24, 217.53 0.45, 261.19 0.32 M0.88 0.71 C44.86 0.44, 219.7 -1.22, 263.47 -1.64" stroke="#1e1e1e" stroke-width="1" fill="none"></path></g><g transform="translate(493.44444468286304 51.74050297512349) rotate(0 131.3013964042953 -0.2405029751234622)"><path d="M262.23 -3.52 L248.63 6.67 L251.18 -9.81 L265.16 0.18" stroke="none" stroke-width="0" fill="#1e1e1e" fill-rule="evenodd"></path><path d="M264.91 -2.66 C260.08 -1.09, 256.36 2.25, 249.22 3.93 M263.3 -1.25 C260.12 0.59, 256.96 2.13, 249.69 4.08 M250.43 3.88 C250.95 1.51, 248.61 -1.43, 250.66 -8.22 M250.35 5.33 C250.25 1.8, 249.23 -1.63, 249.54 -7.57 M250.54 -6.37 C254.61 -5.19, 257.41 -2.71, 263.07 -1.62 M249.62 -8.42 C254.9 -5.62, 258.99 -4.71, 263.73 -1.02 M263.47 -1.64 C263.47 -1.64, 263.47 -1.64, 263.47 -1.64 M263.47 -1.64 C263.47 -1.64, 263.47 -1.64, 263.47 -1.64" stroke="#1e1e1e" stroke-width="1" fill="none"></path></g></g><mask></mask><g stroke-linecap="round"><g transform="translate(706.4444444444445 249.80709195329814) rotate(0 25.405141617502068 0.1929080467019162)"><path d="M0.04 -0.16 C8.93 0.01, 43.61 0.13, 52.2 0.09 M-1.39 -1.29 C7.46 -0.82, 42.69 1.35, 51.36 1.67" stroke="#1e1e1e" stroke-width="1" fill="none"></path></g><g transform="translate(706.4444444444445 249.80709195329814) rotate(0 25.405141617502068 0.1929080467019162)"><path d="M50.65 0.49 L36.8 7.14 L39.78 -4.08 L49.57 2.74" stroke="none" stroke-width="0" fill="#1e1e1e" fill-rule="evenodd"></path><path d="M51.16 1.92 C48.57 2.34, 45.08 3.58, 37.62 6.83 M51.74 1.19 C46.16 3.32, 42.45 5.03, 38.08 7.42 M36.49 7.45 C37.98 3.04, 36.79 -0.36, 37.7 -6.31 M37.37 6.88 C37.1 4.78, 37.76 1.64, 37.87 -5.06 M38.93 -6.17 C40.74 -5.17, 45.18 -1.39, 51.4 2.48 M38.36 -4.94 C41.65 -3.17, 44.7 -2.31, 50.76 1.36 M51.36 1.67 C51.36 1.67, 51.36 1.67, 51.36 1.67 M51.36 1.67 C51.36 1.67, 51.36 1.67, 51.36 1.67" stroke="#1e1e1e" stroke-width="1" fill="none"></path></g></g><mask></mask><g stroke-linecap="round" transform="translate(10 376.5833339691162) rotate(0 83.5 41.5)"><path d="M20.75 0 M20.75 0 C64.55 -0.55, 108.36 -2.33, 146.25 0 M20.75 0 C60.29 -0.01, 100.59 0.55, 146.25 0 M146.25 0 C161.17 0.47, 165.93 6.76, 167 20.75 M146.25 0 C160.14 0.19, 168.54 9.16, 167 20.75 M167 20.75 C165.85 34.81, 167.42 47.51, 167 62.25 M167 20.75 C166.03 33.21, 167.73 45.39, 167 62.25 M167 62.25 C165.82 76.54, 158.33 83.18, 146.25 83 M167 62.25 C165.84 74.2, 159.92 83.05, 146.25 83 M146.25 83 C120.68 84.71, 96.37 82.27, 20.75 83 M146.25 83 C113.07 84.95, 78.71 84.02, 20.75 83 M20.75 83 C8.69 84.93, -1.95 77.92, 0 62.25 M20.75 83 C6.71 83.47, -0.94 78.14, 0 62.25 M0 62.25 C-1.12 46.66, -0.61 34.08, 0 20.75 M0 62.25 C0.13 50.41, -0.21 40.32, 0 20.75 M0 20.75 C0.58 5.96, 5.09 0.72, 20.75 0 M0 20.75 C0.79 7.82, 7.99 1.33, 20.75 0" stroke="#1e1e1e" stroke-width="1" fill="none"></path></g><g transform="translate(59.53999710083008 405.5833339691162) rotate(0 33.96000289916992 12.5)"><text x="33.96000289916992" y="0" font-family="Virgil, Segoe UI Emoji" font-size="20px" fill="#1e1e1e" text-anchor="middle" style="white-space: pre;" direction="ltr" dominant-baseline="text-before-edge">ERC20</text></g><g stroke-linecap="round" transform="translate(208.4814814814814 376.5833339691162) rotate(0 83.5 41.5)"><path d="M20.75 0 M20.75 0 C66.67 2.51, 108.49 -0.1, 146.25 0 M20.75 0 C60.87 -0.87, 101.89 -0.43, 146.25 0 M146.25 0 C158.28 -1.31, 168.35 6.24, 167 20.75 M146.25 0 C159.11 -1.96, 165.79 9.04, 167 20.75 M167 20.75 C167.28 36.07, 166.16 51.84, 167 62.25 M167 20.75 C167.57 33, 166.36 43.07, 167 62.25 M167 62.25 C166.06 74.16, 158.95 84.82, 146.25 83 M167 62.25 C168.67 75.94, 159.39 85.07, 146.25 83 M146.25 83 C117.05 81.66, 89.5 83.98, 20.75 83 M146.25 83 C117.86 81.68, 91.35 82.68, 20.75 83 M20.75 83 C6.55 84.8, 1.81 77.14, 0 62.25 M20.75 83 C9 82.85, 0.11 74.35, 0 62.25 M0 62.25 C1.46 51.85, -0.45 45.9, 0 20.75 M0 62.25 C-0.07 47.04, 0.38 31.9, 0 20.75 M0 20.75 C0.39 7.95, 6.04 -0.21, 20.75 0 M0 20.75 C-1.71 8.94, 8.67 1.42, 20.75 0" stroke="#1e1e1e" stroke-width="1" fill="none"></path></g><g transform="translate(254.2414798030146 405.5833339691162) rotate(0 37.7400016784668 12.5)"><text x="37.7400016784668" y="0" font-family="Virgil, Segoe UI Emoji" font-size="20px" fill="#1e1e1e" text-anchor="middle" style="white-space: pre;" direction="ltr" dominant-baseline="text-before-edge">ERC1155</text></g><g stroke-linecap="round" transform="translate(444.96296296296293 376.5833339691162) rotate(0 83.5 41.5)"><path d="M20.75 0 M20.75 0 C45.29 0.49, 72.5 -0.12, 146.25 0 M20.75 0 C48.78 -0.47, 75.18 -0.54, 146.25 0 M146.25 0 C158.99 -1.91, 165.27 7.2, 167 20.75 M146.25 0 C162.19 1.47, 167.98 5.7, 167 20.75 M167 20.75 C167.82 37.01, 168.07 51.75, 167 62.25 M167 20.75 C166.58 30.74, 168.1 40.71, 167 62.25 M167 62.25 C166.9 75.37, 159.1 84.57, 146.25 83 M167 62.25 C168.07 77.63, 158.71 84.34, 146.25 83 M146.25 83 C102.6 82.54, 61.94 82.3, 20.75 83 M146.25 83 C113.19 82.09, 79.09 81.85, 20.75 83 M20.75 83 C5.19 82.44, 0.52 75.7, 0 62.25 M20.75 83 C9.18 83.43, 0.31 76.45, 0 62.25 M0 62.25 C-1.19 51.73, -0.16 37.69, 0 20.75 M0 62.25 C0.58 54.47, -0.55 45.05, 0 20.75 M0 20.75 C-1.11 7.92, 6.66 -1.15, 20.75 0 M0 20.75 C-1.31 9.07, 8.1 0.15, 20.75 0" stroke="#1e1e1e" stroke-width="1" fill="none"></path></g><g transform="translate(493.2929647940176 405.5833339691162) rotate(0 35.16999816894531 12.5)"><text x="35.16999816894531" y="0" font-family="Virgil, Segoe UI Emoji" font-size="20px" fill="#1e1e1e" text-anchor="middle" style="white-space: pre;" direction="ltr" dominant-baseline="text-before-edge">ERC721</text></g><g stroke-linecap="round" transform="translate(643.4444444444445 376.5833339691162) rotate(0 83.5 41.5)"><path d="M20.75 0 M20.75 0 C65.68 -0.28, 114 1.12, 146.25 0 M20.75 0 C52.61 -0.34, 84.69 0.76, 146.25 0 M146.25 0 C161.91 1.28, 167.85 5.86, 167 20.75 M146.25 0 C162.09 -0.35, 168.92 7.93, 167 20.75 M167 20.75 C166.02 34.51, 165.42 45.22, 167 62.25 M167 20.75 C167.32 33.15, 166.88 47.04, 167 62.25 M167 62.25 C167.93 77.43, 158.89 84.16, 146.25 83 M167 62.25 C167.9 74.07, 161.99 81.71, 146.25 83 M146.25 83 C117.38 83.28, 88.17 83.35, 20.75 83 M146.25 83 C106.85 82.5, 69.43 82.59, 20.75 83 M20.75 83 C8.89 83.37, 0.27 76.4, 0 62.25 M20.75 83 C6.87 81.68, 0.1 74.44, 0 62.25 M0 62.25 C-1.91 45.39, 0.23 30.62, 0 20.75 M0 62.25 C-0.28 48.09, 0.15 32.36, 0 20.75 M0 20.75 C-1.14 8.79, 7.94 0.13, 20.75 0 M0 20.75 C2.04 5.27, 5.82 -0.6, 20.75 0" stroke="#1e1e1e" stroke-width="1" fill="none"></path></g><g transform="translate(689.2044427659777 405.5833339691162) rotate(0 37.7400016784668 12.5)"><text x="37.7400016784668" y="0" font-family="Virgil, Segoe UI Emoji" font-size="20px" fill="#1e1e1e" text-anchor="middle" style="white-space: pre;" direction="ltr" dominant-baseline="text-before-edge">ERC1155</text></g><g stroke-linecap="round"><g transform="translate(92.6226047961315 373.8865026444197) rotate(0 50.396847309693385 -41.60926987063141)"><path d="M1.04 -0.77 C-1.38 -6.99, -0.6 -18.55, 0.29 -41.09 M0.54 -0.19 C0.67 -15.4, -0.03 -28.64, 0.79 -41.19 M-0.07 -41.26 C37.29 -40.52, 70.16 -41.5, 98.92 -41.27 M-0.1 -42.25 C24.71 -40.25, 48.83 -41.76, 98.91 -41.17 M100.01 -40.04 C98.62 -55.14, 98.97 -73.54, 100.18 -83.02 M99.97 -42.38 C101.19 -52.23, 101.72 -63.47, 101.12 -81.78" stroke="#1e1e1e" stroke-width="1" fill="none"></path></g><g transform="translate(92.6226047961315 373.8865026444197) rotate(0 50.396847309693385 -41.60926987063141)"><path d="M102.85 -83.38 L109.68 -67.38 L93.26 -66.6 L101.87 -80.53" stroke="none" stroke-width="0" fill="#1e1e1e" fill-rule="evenodd"></path><path d="M101.9 -82.36 C101.64 -77.82, 103.58 -77.3, 107.91 -67.95 M101.53 -81.93 C103.47 -77.86, 105.22 -72.31, 108.28 -68.03 M107.64 -68.11 C104.39 -66.96, 98.29 -67.5, 94.43 -67.91 M107.62 -68.74 C104.79 -67.74, 101.51 -68.64, 94.43 -67.84 M95.15 -66.95 C96.09 -72.22, 98.35 -79.92, 100.57 -83.01 M95.12 -68.71 C97.33 -71.66, 99.17 -75.67, 101.28 -82.08 M101.12 -81.78 C101.12 -81.78, 101.12 -81.78, 101.12 -81.78 M101.12 -81.78 C101.12 -81.78, 101.12 -81.78, 101.12 -81.78" stroke="#1e1e1e" stroke-width="1" fill="none"></path></g></g><mask></mask><g stroke-linecap="round"><g transform="translate(294.54865324351897 374.7045002406462) rotate(0 -50.12839248266465 -41.158848044835054)"><path d="M1.1 -1.12 C0.12 -15.24, 1.52 -25.35, -1.12 -40.06 M-0.93 0.63 C0.38 -13.03, -0.37 -25.55, 0.08 -40.94 M-0.44 -39.87 C-24.89 -42.63, -48.82 -42.14, -100.66 -41.19 M0.28 -40.62 C-35.19 -41.79, -68.32 -42.55, -99.85 -41.19 M-100.92 -41.09 C-99.33 -53.69, -101.75 -69.37, -100.87 -82.95 M-99.29 -41.26 C-98.99 -51.58, -100.65 -60.79, -101.36 -81.16" stroke="#1e1e1e" stroke-width="1" fill="none"></path></g><g transform="translate(294.54865324351897 374.7045002406462) rotate(0 -50.12839248266465 -41.158848044835054)"><path d="M-100.2 -83.05 L-95.11 -67.4 L-106.36 -68.55 L-101.89 -82.12" stroke="none" stroke-width="0" fill="#1e1e1e" fill-rule="evenodd"></path><path d="M-100.53 -82 C-99.18 -78.02, -95.81 -71.01, -95.16 -66.8 M-102.06 -80.69 C-99.29 -77.16, -97.66 -72.73, -94.26 -67.46 M-94.6 -66.85 C-97.82 -68.32, -100.71 -67.84, -107.51 -67.03 M-94.15 -67.32 C-99.13 -67.42, -102.64 -67.67, -107 -67.03 M-107.8 -66.91 C-104.6 -71.01, -104.26 -77.4, -101.33 -82.21 M-106.58 -67.03 C-104.91 -70.87, -104.58 -73.85, -101.69 -80.87 M-101.36 -81.16 C-101.36 -81.16, -101.36 -81.16, -101.36 -81.16 M-101.36 -81.16 C-101.36 -81.16, -101.36 -81.16, -101.36 -81.16" stroke="#1e1e1e" stroke-width="1" fill="none"></path></g></g><mask></mask><g stroke-linecap="round"><g transform="translate(529.2175456580223 375.7220637400633) rotate(0 50.0156170292982 -40.724825579114224)"><path d="M1.3 -0.8 C2.3 -15.72, -0.31 -27.92, 0.85 -42.9 M0.2 0.29 C0.64 -15.91, 0.06 -32.07, -0.8 -40.65 M-0.51 -42.24 C22.34 -42.16, 45.3 -40.03, 100.47 -43.15 M-0.04 -42.2 C29.56 -40.27, 60.62 -40.41, 99.57 -41.51 M98.16 -43.5 C98.31 -50.57, 100.01 -60.55, 100.34 -81.74 M100.51 -42.53 C100.65 -56.66, 100.74 -74.02, 100.83 -81.29" stroke="#1e1e1e" stroke-width="1" fill="none"></path></g><g transform="translate(529.2175456580223 375.7220637400633) rotate(0 50.0156170292982 -40.724825579114224)"><path d="M100.67 -81.03 L106.06 -68.18 L95.26 -66.96 L102.82 -79.88" stroke="none" stroke-width="0" fill="#1e1e1e" fill-rule="evenodd"></path><path d="M101.81 -81.89 C104.25 -77.75, 104.42 -71.6, 107.69 -68.65 M100.98 -81.07 C103.37 -76.22, 105.29 -71.33, 106.45 -66.96 M106.72 -68.07 C103.34 -67.97, 100.02 -66.65, 94.78 -68.76 M107.02 -68.05 C102.69 -67.6, 99.28 -67.72, 94.21 -67.73 M93.12 -69.22 C94.51 -70.6, 97.13 -74.18, 100.4 -81.43 M94.88 -68.49 C97.19 -72.51, 99.5 -79, 100.77 -81.09 M100.83 -81.29 C100.83 -81.29, 100.83 -81.29, 100.83 -81.29 M100.83 -81.29 C100.83 -81.29, 100.83 -81.29, 100.83 -81.29" stroke="#1e1e1e" stroke-width="1" fill="none"></path></g></g><mask></mask><g stroke-linecap="round"><g transform="translate(731.1435941054098 376.5400613362899) rotate(0 -49.84817806048943 -40.477634746022545)"><path d="M1.59 -1.35 C-0.4 -12.97, 0.41 -26.03, -0.31 -42 M-0.65 0.67 C0.43 -10.45, -0.01 -20.96, -0.26 -42.39 M0.08 -40.85 C-39.98 -42.42, -77.36 -43.92, -99.21 -41.71 M-0.63 -41.9 C-31.9 -42.34, -64.18 -42.47, -99.59 -41.78 M-97.89 -42.01 C-101.83 -52.1, -102.33 -64.79, -99.44 -81.62 M-99.31 -41.46 C-100.69 -51.13, -99.76 -60.45, -101.18 -81.59" stroke="#1e1e1e" stroke-width="1" fill="none"></path></g><g transform="translate(731.1435941054098 376.5400613362899) rotate(0 -49.84817806048943 -40.477634746022545)"><path d="M-102.55 -79.66 L-92.92 -70.14 L-105.85 -67.06 L-101.41 -83.29" stroke="none" stroke-width="0" fill="#1e1e1e" fill-rule="evenodd"></path><path d="M-99.99 -82.61 C-99.04 -76.96, -96.19 -72.45, -94.43 -68.65 M-101.66 -81.09 C-99.5 -78.59, -98.12 -75.57, -94.39 -68.94 M-94.15 -67.87 C-100.26 -68.24, -104.67 -68.96, -106.48 -67.82 M-94.6 -68.54 C-98.4 -68.65, -102.84 -68.54, -106.72 -67.86 M-105.42 -68.07 C-106.48 -70.82, -104.91 -75.53, -100.07 -81.65 M-106.48 -67.65 C-106.07 -71.3, -103.91 -74.67, -101.38 -81.63 M-101.18 -81.59 C-101.18 -81.59, -101.18 -81.59, -101.18 -81.59 M-101.18 -81.59 C-101.18 -81.59, -101.18 -81.59, -101.18 -81.59" stroke="#1e1e1e" stroke-width="1" fill="none"></path></g></g><mask></mask></svg>